<svg class="hidden" style="display: none;"><symbol viewBox="0 0 100 100" id="help"><title>help</title><path d="M50 0c27.573 0 50 22.43 50 50 0 27.575-22.427 50-50 50-27.562 0-50-22.425-50-50 0-27.57 22.438-50 50-50m3.891 77.942c1.198-1.192 1.807-2.648 1.807-4.332 0-1.683-.606-3.139-1.8-4.327-1.192-1.198-2.648-1.805-4.332-1.805-1.683 0-3.14.606-4.331 1.803-1.192 1.198-1.799 2.655-1.799 4.329 0 1.675.606 3.132 1.799 4.327 1.191 1.196 2.65 1.801 4.331 1.801s3.139-.604 4.325-1.796zm-.886-14.17c1.064-.868 1.604-2.19 1.604-3.928 0-.991.285-1.943.864-2.905 1.142-1.851 3.081-3.805 5.755-5.798 5.259-3.861 7.924-8.43 7.924-13.575 0-4.902-1.805-8.902-5.352-11.876-3.372-2.873-7.966-4.329-13.653-4.329-5.334 0-10.203 1.332-14.454 3.949-2.214 1.326-2.68 3.127-2.68 4.4 0 1.165.461 2.243 1.336 3.121.871.877 1.938 1.339 3.085 1.339 1.035 0 2.021-.286 2.968-.873 2.331-1.536 5.401-2.317 9.126-2.317 8.619 0 9.616 3.979 9.616 6.972 0 .988-.315 1.91-.966 2.825-.501.709-1.884 2.182-5.601 5.162-5.188 4.017-7.819 8.892-7.819 14.488 0 1.246.506 2.371 1.459 3.244.932.856 2.07 1.293 3.389 1.293 1.284.001 2.427-.402 3.399-1.192z"/></symbol><symbol viewBox="0 0 26 16" id="icon_arrow_down"><title>icon_arrow_down</title><path d="M.848 2.804c0-.208.08-.392.24-.552l1.2-1.2c.16-.16.344-.24.552-.24.208 0 .392.08.552.24l9.43 9.43 9.43-9.43c.16-.16.344-.24.552-.24.208 0 .392.08.552.24l1.2 1.2c.16.16.24.344.24.552 0 .208-.08.392-.24.552l-11.182 11.182c-.16.16-.344.24-.552.24-.208 0-.392-.08-.552-.24l-11.182-11.182c-.16-.16-.24-.344-.24-.552z"/></symbol><symbol viewBox="0 0 16 26" id="icon_arrow_left"><title>icon_arrow_left</title><path d="M.08 12.179c0-.208.08-.392.24-.552l11.182-11.182c.16-.16.344-.24.552-.24.208 0 .392.08.552.24l1.2 1.2c.16.16.24.344.24.552 0 .208-.08.392-.24.552l-9.43 9.43 9.43 9.43c.16.16.24.344.24.552 0 .208-.08.392-.24.552l-1.2 1.2c-.16.16-.344.24-.552.24-.208 0-.392-.08-.552-.24l-11.182-11.182c-.16-.16-.24-.344-.24-.552z"/></symbol><symbol viewBox="0 0 16 26" id="icon_arrow_right"><title>icon_arrow_right</title><path d="M.312 22.161c0-.208.08-.392.24-.552l9.43-9.43-9.43-9.43c-.16-.16-.24-.344-.24-.552 0-.208.08-.392.24-.552l1.2-1.2c.16-.16.344-.24.552-.24.208 0 .392.08.552.24l11.182 11.182c.16.16.24.344.24.552 0 .208-.08.392-.24.552l-11.182 11.182c-.16.16-.344.24-.552.24-.208 0-.392-.08-.552-.24l-1.2-1.2c-.16-.16-.24-.344-.24-.552z"/></symbol><symbol viewBox="0 0 26 16" id="icon_arrow_up"><title>icon_arrow_up</title><path d="M1.088 12.002l11.182-11.182c.16-.16.344-.24.552-.24.208 0 .392.08.552.24l11.182 11.182c.16.16.24.344.24.552 0 .208-.08.392-.24.552l-1.2 1.2c-.16.16-.344.24-.552.24-.208 0-.392-.08-.552-.24l-9.43-9.43-9.43 9.43c-.16.16-.344.24-.552.24-.208 0-.392-.08-.552-.24l-1.2-1.2c-.16-.16-.24-.344-.24-.552 0-.208.08-.392.24-.552z"/></symbol><symbol viewBox="0 0 32 24" id="icon_check"><title>icon_check</title><path d="M1.096 12.13l1.505-1.505c.201-.201.431-.301.692-.301.261 0 .492.1.692.301l6.812 6.812 16.847-16.847c.201-.201.431-.301.692-.301.261 0 .492.1.692.301l1.505 1.505c.201.201.301.431.301.692 0 .261-.1.492-.301.692l-19.044 19.044c-.201.201-.431.301-.692.301-.261 0-.492-.1-.692-.301l-9.009-9.009c-.201-.201-.301-.431-.301-.692 0-.261.1-.492.301-.692z"/></symbol><symbol viewBox="0 0 26 26" id="icon_close"><title>icon_close</title><path d="M12.108 10.188l-9.439-9.439c-.16-.16-.344-.24-.552-.24-.208 0-.392.08-.552.24l-1.2 1.2c-.16.16-.24.344-.24.552 0 .208.08.392.24.552l9.43 9.43-9.43 9.43c-.16.16-.24.344-.24.552 0 .208.08.392.24.552l1.2 1.2c.16.16.344.24.552.24.208 0 .392-.08.552-.24l9.439-9.439 9.439 9.439c.16.16.344.24.552.24.208 0 .392-.08.552-.24l1.2-1.2c.16-.16.24-.344.24-.552 0-.208-.08-.392-.24-.552l-9.43-9.43 9.43-9.43c.16-.16.24-.344.24-.552 0-.208-.08-.392-.24-.552l-1.2-1.2c-.16-.16-.344-.24-.552-.24-.208 0-.392.08-.552.24l-9.439 9.439z"/></symbol><symbol viewBox="113 79.7 100 66.7" id="icon-fullscreen"><title>icon-fullscreen</title><path d="M197.7 94.9v36.1h-69.4v-36.1h69.4m7-6.9h-83.3v50h83.3v-50zM117.6 125.5h-4.6v20.8h20.8v-4.6h-16.2zM113 79.7v20.8h4.6v-16.2h16.2v-4.6zM208.4 100.5h4.6v-20.8h-20.8v4.6h16.2zM208.4 125.5v16.2h-16.2v4.6h20.8v-20.8z"/></symbol></svg>